<?xml version="1.0" encoding="utf-8"?>
<!-- Generator: Adobe Illustrator 16.0.0, SVG Export Plug-In . SVG Version: 6.00 Build 0)  -->
<!DOCTYPE svg PUBLIC "-//W3C//DTD SVG 1.1//EN" "http://www.w3.org/Graphics/SVG/1.1/DTD/svg11.dtd">
<svg version="1.1" id="Layer_1" xmlns="http://www.w3.org/2000/svg" xmlns:xlink="http://www.w3.org/1999/xlink" x="0px" y="0px"
	 width="500px" height="500px" viewBox="0 0 500 500" enable-background="new 0 0 500 500" xml:space="preserve">
<g>
	<polygon fill="#EF3D39" stroke="#EF3D39" stroke-width="9.0607" points="251.379,8.718 168.134,44.96 139.253,194.461 
		157.375,194.461 212.305,102.156 273.464,96.493 298.947,47.226 	"/>
	<polygon fill="#EF3D39" stroke="#EF3D39" stroke-width="9.0607" points="43.275,126.418 32.224,216.547 146.35,317.338 
		155.543,301.729 103.922,207.53 130.113,151.967 100.595,104.996 	"/>
	<polygon fill="#EF3D39" stroke="#EF3D39" stroke-width="9.0607" points="50.646,308.524 106.081,306.207 141.324,356.518 
		248.715,358.447 257.705,374.17 113.575,423.234 40.807,368.914 	"/>
	<polygon fill="#EF3D39" stroke="#EF3D39" stroke-width="9.0607" points="202.987,453.982 228.107,404.512 289.231,398.414 
		343.489,305.711 361.602,305.569 333.818,455.283 250.83,492.136 	"/>
	<polygon fill="#EF3D39" stroke="#EF3D39" stroke-width="9.0607" points="459.394,368.826 468.277,278.449 351.763,180.433 
		342.949,196.258 396.818,289.183 371.963,345.369 402.605,391.61 	"/>
	<polygon fill="#EF3D39" stroke="#EF3D39" stroke-width="9.0607" points="457.465,126.661 383.705,73.687 240.495,125.4 
		249.786,140.96 357.195,140.907 393.358,190.563 448.731,187.228 	"/>
</g>
</svg>
